<svg width="19" height="20" viewBox="0 0 19 20" fill="none" xmlns="http://www.w3.org/2000/svg">
<path d="M9.5 0.5C14.7467 0.5 19 4.75329 19 10C19 15.2467 14.7467 19.5 9.5 19.5C4.25329 19.5 0 15.2467 0 10C0 4.75329 4.25329 0.5 9.5 0.5ZM9.5 2.08333C5.12775 2.08333 1.58333 5.62775 1.58333 10C1.58333 14.3723 5.12775 17.9167 9.5 17.9167C13.8723 17.9167 17.4167 14.3723 17.4167 10C17.4167 5.62775 13.8723 2.08333 9.5 2.08333ZM9.5 5.25C9.93723 5.25 10.2917 5.60444 10.2917 6.04167V9.20833H13.4583C13.8956 9.20833 14.25 9.56277 14.25 10C14.25 10.4372 13.8956 10.7917 13.4583 10.7917H10.2917V13.9583C10.2917 14.3956 9.93723 14.75 9.5 14.75C9.06277 14.75 8.70833 14.3956 8.70833 13.9583V10.7917H5.54167C5.10444 10.7917 4.75 10.4372 4.75 10C4.75 9.56277 5.10444 9.20833 5.54167 9.20833H8.70833V6.04167C8.70833 5.60444 9.06277 5.25 9.5 5.25Z" fill="#FF7C03"/>
</svg>
