<svg width="64" height="64" viewBox="0 0 64 64" fill="none" xmlns="http://www.w3.org/2000/svg">
<rect width="64" height="64" rx="32" fill="#FF7C03" fill-opacity="0.15"/>
<path d="M16 22.6667V40.6667C16 41.0704 16.2427 41.4345 16.6154 41.5897L32 48M16 22.6667L31.2308 16.3205C31.7231 16.1154 32.2769 16.1154 32.7692 16.3205L40 19.3333M16 22.6667L24 26M32 29.3333V48M32 29.3333L48 22.6667M32 29.3333L24 26M32 48L47.3846 41.5897C47.7573 41.4345 48 41.0704 48 40.6667V22.6667M48 22.6667L40 19.3333M24 26L40 19.3333" stroke="#FF7C03" stroke-width="3" stroke-linejoin="round"/>
</svg>
