<svg width="24" height="25" viewBox="0 0 24 25" fill="none" xmlns="http://www.w3.org/2000/svg">
<path d="M19.0621 21.4693C17.1077 23.4236 12.1028 21.5873 7.88327 17.3677C3.66372 13.1482 1.82739 8.14325 3.7817 6.18893L5.06847 4.90216C5.9568 4.01383 7.42054 4.03731 8.33784 4.95461L10.3309 6.9477C11.2482 7.86499 11.2717 9.32874 10.3834 10.2171L10.107 10.4934C9.62737 10.9731 9.58045 11.7468 10.0261 12.2868C10.456 12.8078 10.9194 13.3266 11.4219 13.8291C11.9244 14.3316 12.4432 14.795 12.9641 15.2249C13.5042 15.6705 14.2779 15.6236 14.7575 15.144L15.0339 14.8676C15.9222 13.9793 17.386 14.0028 18.3033 14.9201L20.2964 16.9131C21.2137 17.8304 21.2371 19.2942 20.3488 20.1825L19.0621 21.4693Z" stroke="#222222"/>
<path d="M17.6264 10.2508C17.3825 9.65565 17.0188 9.09802 16.5356 8.61475C16.0796 8.15877 15.5574 7.8093 14.9999 7.56634" stroke="#222222" stroke-linecap="round"/>
<path d="M14.9999 4.16341C16.3346 4.64691 17.5868 5.42365 18.6568 6.49364C19.7536 7.59049 20.5423 8.87883 21.0229 10.2511" stroke="#222222" stroke-linecap="round"/>
</svg>
