<svg width="24" height="24" viewBox="0 0 24 24" fill="none" xmlns="http://www.w3.org/2000/svg">
<path fill-rule="evenodd" clip-rule="evenodd" d="M3.99922 12.3002L3.99923 12.0764V12.0002L3.99925 12.0002C3.9996 10.5303 4.0046 9.45334 4.07457 8.5969C4.14836 7.69373 4.28991 7.11532 4.52784 6.64834C4.99283 5.73576 5.73478 4.9938 6.64737 4.52882C7.11434 4.29088 7.69276 4.14934 8.59592 4.07555C9.5096 4.0009 10.6742 4.0002 12.2992 4.0002H13.5993L13.7352 4.00024H16.8116C16.7747 3.8366 16.7201 3.67245 16.6377 3.51062C16.4076 3.05903 16.0404 2.69188 15.5888 2.46178C15.2804 2.30462 14.9635 2.24861 14.6577 2.22362C14.3706 2.20016 14.0241 2.20018 13.6326 2.2002H13.6326L13.5993 2.2002H12.2992L12.2591 2.2002C10.6829 2.20019 9.44488 2.20019 8.44935 2.28153C7.43486 2.36441 6.5932 2.53623 5.83019 2.92501C4.57891 3.56256 3.56159 4.57988 2.92403 5.83116C2.53525 6.59418 2.36344 7.43584 2.28055 8.45032C2.19921 9.44586 2.19922 10.6839 2.19922 12.26L2.19922 12.3002V13.6002L2.19922 13.6335V13.6336V13.6336C2.1992 14.0251 2.19919 14.3716 2.22265 14.6587C2.24763 14.9645 2.30364 15.2813 2.46081 15.5898C2.6909 16.0414 3.05806 16.4085 3.50965 16.6386C3.67147 16.7211 3.8356 16.7757 3.99923 16.8126V13.6798L3.99922 13.6002V12.3002ZM10.0792 6.00022L10.0444 6.00022H10.0444C9.52347 6.00021 9.07987 6.0002 8.71548 6.02948C8.33275 6.06023 7.96017 6.12757 7.60299 6.30604C7.04122 6.58674 6.58574 7.04222 6.30504 7.60398C6.12657 7.96117 6.05924 8.33375 6.02848 8.71647C5.9992 9.08087 5.99921 9.52446 5.99922 10.0454V10.0454L5.99922 10.0802V17.9202L5.99922 17.955V17.955C5.99921 18.476 5.9992 18.9196 6.02848 19.2839C6.05924 19.6667 6.12657 20.0393 6.30504 20.3964C6.58574 20.9582 7.04122 21.4137 7.60299 21.6944C7.96017 21.8729 8.33275 21.9402 8.71548 21.9709C9.07985 22.0002 9.52341 22.0002 10.0443 22.0002H10.0444H10.0792H16.9192H16.954H16.9541C17.475 22.0002 17.9186 22.0002 18.283 21.9709C18.6657 21.9402 19.0383 21.8729 19.3955 21.6944C19.9572 21.4137 20.4127 20.9582 20.6934 20.3964C20.8719 20.0393 20.9392 19.6667 20.97 19.2839C20.9993 18.9196 20.9992 18.476 20.9992 17.955V17.9202V10.0802V10.0454C20.9992 9.52447 20.9993 9.08087 20.97 8.71648C20.9392 8.33375 20.8719 7.96117 20.6934 7.60398C20.4127 7.04222 19.9572 6.58674 19.3955 6.30604C19.0383 6.12757 18.6657 6.06023 18.283 6.02948C17.9186 6.0002 17.475 6.00021 16.954 6.00022H16.954L16.9192 6.00022H10.0792ZM8.40755 7.91622C8.47246 7.88379 8.58624 7.84567 8.85966 7.82369C9.14332 7.8009 9.51401 7.80022 10.0792 7.80022H16.9192C17.4844 7.80022 17.8551 7.8009 18.1388 7.82369C18.4122 7.84567 18.526 7.88379 18.5909 7.91622C18.804 8.0227 18.9768 8.19546 19.0832 8.40855C19.1157 8.47346 19.1538 8.58724 19.1758 8.86066C19.1986 9.14432 19.1992 9.51501 19.1992 10.0802V17.9202C19.1992 18.4854 19.1986 18.8561 19.1758 19.1398C19.1538 19.4132 19.1157 19.527 19.0832 19.5919C18.9768 19.805 18.804 19.9777 18.5909 20.0842C18.526 20.1166 18.4122 20.1548 18.1388 20.1767C17.8551 20.1995 17.4844 20.2002 16.9192 20.2002H10.0792C9.51401 20.2002 9.14332 20.1995 8.85966 20.1767C8.58624 20.1548 8.47246 20.1166 8.40755 20.0842C8.19446 19.9777 8.0217 19.805 7.91523 19.5919C7.88279 19.527 7.84467 19.4132 7.8227 19.1398C7.7999 18.8561 7.79922 18.4854 7.79922 17.9202V10.0802C7.79922 9.51501 7.7999 9.14432 7.8227 8.86066C7.84467 8.58724 7.88279 8.47346 7.91523 8.40855C8.0217 8.19546 8.19446 8.0227 8.40755 7.91622Z" fill="#FF7C03"/>
</svg>
