<svg width="46" height="45" viewBox="0 0 46 45" fill="none" xmlns="http://www.w3.org/2000/svg">
<rect x="1" y="0.5" width="44" height="44" rx="7.5" fill="#222222"/>
<rect x="1" y="0.5" width="44" height="44" rx="7.5" stroke="#222222"/>
<path d="M23.0049 16.8848C19.8994 16.8848 17.3945 19.3896 17.3945 22.4951C17.3945 25.6006 19.8994 28.1055 23.0049 28.1055C26.1104 28.1055 28.6152 25.6006 28.6152 22.4951C28.6152 19.3896 26.1104 16.8848 23.0049 16.8848ZM23.0049 26.1426C20.998 26.1426 19.3574 24.5068 19.3574 22.4951C19.3574 20.4834 20.9932 18.8477 23.0049 18.8477C25.0166 18.8477 26.6523 20.4834 26.6523 22.4951C26.6523 24.5068 25.0117 26.1426 23.0049 26.1426ZM30.1533 16.6553C30.1533 17.3828 29.5674 17.9639 28.8447 17.9639C28.1172 17.9639 27.5361 17.3779 27.5361 16.6553C27.5361 15.9326 28.1221 15.3467 28.8447 15.3467C29.5674 15.3467 30.1533 15.9326 30.1533 16.6553ZM33.8691 17.9834C33.7861 16.2305 33.3857 14.6777 32.1016 13.3984C30.8223 12.1191 29.2695 11.7188 27.5166 11.6309C25.71 11.5283 20.2949 11.5283 18.4883 11.6309C16.7402 11.7139 15.1875 12.1143 13.9033 13.3936C12.6191 14.6729 12.2236 16.2256 12.1357 17.9785C12.0332 19.7852 12.0332 25.2002 12.1357 27.0068C12.2188 28.7598 12.6191 30.3125 13.9033 31.5918C15.1875 32.8711 16.7354 33.2715 18.4883 33.3594C20.2949 33.4619 25.71 33.4619 27.5166 33.3594C29.2695 33.2764 30.8223 32.876 32.1016 31.5918C33.3809 30.3125 33.7812 28.7598 33.8691 27.0068C33.9717 25.2002 33.9717 19.79 33.8691 17.9834ZM31.5352 28.9453C31.1543 29.9023 30.417 30.6396 29.4551 31.0254C28.0147 31.5967 24.5967 31.4648 23.0049 31.4648C21.4131 31.4648 17.9902 31.5918 16.5547 31.0254C15.5977 30.6445 14.8604 29.9072 14.4746 28.9453C13.9033 27.5049 14.0352 24.0869 14.0352 22.4951C14.0352 20.9033 13.9082 17.4805 14.4746 16.0449C14.8555 15.0879 15.5928 14.3506 16.5547 13.9648C17.9951 13.3936 21.4131 13.5254 23.0049 13.5254C24.5967 13.5254 28.0195 13.3984 29.4551 13.9648C30.4121 14.3457 31.1494 15.083 31.5352 16.0449C32.1064 17.4854 31.9746 20.9033 31.9746 22.4951C31.9746 24.0869 32.1064 27.5098 31.5352 28.9453Z" fill="white" fill-opacity="0.8"/>
</svg>
