<svg width="18" height="22" viewBox="0 0 18 22" fill="none" xmlns="http://www.w3.org/2000/svg">
<path d="M2.05063 7.23418C1.20573 6.10763 2.00954 4.5 3.41772 4.5H14.5823C15.9905 4.5 16.7943 6.10763 15.9494 7.23418V7.23418C15.3331 8.05584 15 9.0552 15 10.0823V16.5C15 18.7091 13.2091 20.5 11 20.5H7C4.79086 20.5 3 18.7091 3 16.5V10.0823C3 9.0552 2.66688 8.05584 2.05063 7.23418V7.23418Z" stroke="#FF7C03" stroke-width="1.5"/>
<path d="M11 15.5L11 9.5" stroke="#FF7C03" stroke-width="1.5" stroke-linecap="round" stroke-linejoin="round"/>
<path d="M7 15.5L7 9.5" stroke="#FF7C03" stroke-width="1.5" stroke-linecap="round" stroke-linejoin="round"/>
<path d="M13 4.5L12.4558 2.86754C12.1836 2.05086 11.4193 1.5 10.5585 1.5H7.44152C6.58066 1.5 5.81638 2.05086 5.54415 2.86754L5 4.5" stroke="#FF7C03" stroke-width="1.5" stroke-linecap="round"/>
</svg>
